#N canvas 0 0 1920 944 16;
#X msg 299 16 devices;
#X msg 483 13 close;
#X obj 158 153 print;
#X msg 390 13 open 3;
#X obj 301 130 sel 13 10;
#X obj 302 191 zl group 100;
#X obj 303 236 iem_alisttosym;
#X obj 303 284 fromsymbol;
#X obj 302 81 comport 3 9600;
#X obj 502 1045 dac~;
#X floatatom 379 744 5 0 0 0 - - -;
#X obj 371 691 * 2;
#X floatatom 283 582 5 0 0 0 - - -;
#X floatatom 484 732 5 0 0 0 - - -;
#X obj 481 683 * 3;
#X floatatom 595 753 5 0 0 0 - - -;
#X floatatom 698 736 5 0 0 0 - - -;
#X obj 368 828 *~ 0.5;
#X text 500 107 receiving data from com port 3 and serial 96000 click
"open 3" to start. click "close" to stop.;
#X obj 592 704 * 4;
#X obj 695 687 * 5;
#X obj 304 330 unpack f f;
#X floatatom 284 414 5 0 0 0 - - -;
#X floatatom 428 405 5 0 0 0 - - -;
#X text 450 324 PD is receiving an array with [0] as ultrasonic value
and [1] as tilt value.;
#X text 52 607 synth connected to ultrasonic sensor value;
#X obj 283 463 * 0.4;
#X obj 284 518 expr if ($i1>1200 \, 0 \, $i1);
#X text 8 515 prevent random high pitches;
#X obj 367 791 osc~;
#X obj 472 779 osc~;
#X obj 583 800 osc~;
#X obj 147 754 osc~ 440;
#X obj 473 816 *~ 0.4;
#X obj 584 837 *~ 0.3;
#X obj 685 840 *~ 0.2;
#X obj 686 783 osc~;
#X floatatom 812 724 5 0 0 0 - - -;
#X obj 800 771 phasor~;
#X obj 799 828 *~ 0;
#X obj 498 964 *~ 0.1;
#X obj 671 473 expr if($i1==1 \, 0.4 \, 0);
#X obj 809 675 * 2;
#X connect 0 0 8 0;
#X connect 1 0 8 0;
#X connect 3 0 8 0;
#X connect 4 0 5 0;
#X connect 4 2 5 0;
#X connect 5 0 6 0;
#X connect 6 0 7 0;
#X connect 7 0 21 0;
#X connect 8 0 2 0;
#X connect 8 0 4 0;
#X connect 10 0 29 0;
#X connect 11 0 10 0;
#X connect 12 0 14 0;
#X connect 12 0 19 0;
#X connect 12 0 20 0;
#X connect 12 0 11 0;
#X connect 12 0 32 0;
#X connect 12 0 42 0;
#X connect 13 0 30 0;
#X connect 14 0 13 0;
#X connect 15 0 31 0;
#X connect 16 0 36 0;
#X connect 17 0 40 0;
#X connect 19 0 15 0;
#X connect 20 0 16 0;
#X connect 21 0 22 0;
#X connect 21 1 23 0;
#X connect 22 0 26 0;
#X connect 23 0 41 0;
#X connect 26 0 27 0;
#X connect 27 0 12 0;
#X connect 29 0 17 0;
#X connect 30 0 33 0;
#X connect 31 0 34 0;
#X connect 32 0 40 0;
#X connect 33 0 40 0;
#X connect 34 0 40 0;
#X connect 35 0 40 0;
#X connect 36 0 35 0;
#X connect 37 0 38 0;
#X connect 38 0 39 0;
#X connect 39 0 40 0;
#X connect 40 0 9 0;
#X connect 40 0 9 1;
#X connect 41 0 39 1;
#X connect 42 0 37 0;
